<svg xmlns="http://www.w3.org/2000/svg" viewBox="0 0 320 72" fill="none">
  <!-- Gear with pin/bulb inside -->
  <g transform="translate(4, 4) scale(1)">
    <!-- Gear body -->
    <path d="M32 8.5l2.8-4.8 5.6 0.7 1.4 5.5c1.4 0.5 2.7 1.1 3.9 1.9l5.3-2 3.9 4-2 5.3c0.8 1.2 1.4 2.5 1.9 3.9l5.5 1.4 0.7 5.6-4.8 2.8v4.4l4.8 2.8-0.7 5.6-5.5 1.4c-0.5 1.4-1.1 2.7-1.9 3.9l2 5.3-3.9 4-5.3-2c-1.2 0.8-2.5 1.4-3.9 1.9l-1.4 5.5-5.6 0.7L32 55.5h-4.4l-2.8 4.8-5.6-0.7-1.4-5.5c-1.4-0.5-2.7-1.1-3.9-1.9l-5.3 2-3.9-4 2-5.3c-0.8-1.2-1.4-2.5-1.9-3.9l-5.5-1.4-0.7-5.6 4.8-2.8v-4.4l-4.8-2.8 0.7-5.6 5.5-1.4c0.5-1.4 1.1-2.7 1.9-3.9l-2-5.3 3.9-4 5.3 2c1.2-0.8 2.5-1.4 3.9-1.9l1.4-5.5 5.6-0.7L28 8.5h4z" fill="white"/>
    <!-- Inner gear hole -->
    <circle cx="30" cy="32" r="14" fill="#111"/>
    <!-- Pin/drop shape inside -->
    <path d="M30 18c-5.5 0-10 4.5-10 10 0 7.5 10 18 10 18s10-10.5 10-18c0-5.5-4.5-10-10-10z" fill="white"/>
    <!-- Inner circle of pin -->
    <circle cx="30" cy="28" r="4" fill="#111"/>
  </g>
  <!-- MACHI -->
  <text x="74" y="50"
    font-family="'Arial Black', 'Impact', 'Helvetica Neue', Arial, sans-serif"
    font-weight="900"
    font-size="40"
    fill="white"
    letter-spacing="-1">MACHI</text>
  <!-- NET in purple -->
  <text x="198" y="50"
    font-family="'Arial Black', 'Impact', 'Helvetica Neue', Arial, sans-serif"
    font-weight="900"
    font-size="40"
    fill="#a855f7"
    letter-spacing="-1">NET</text>
</svg>
